<svg xmlns="http://www.w3.org/2000/svg" width="16" height="22" fill="none" viewBox="0 0 16 22"><path stroke="#2D383F" stroke-linecap="round" stroke-linejoin="round" d="M15.5 8.15C15.5 4.2 12.14 1 8 1 3.86 1 .5 4.2.5 8.15v.43c0 1.58.52 3.12 1.48 4.4l6 8.01h.03l6-8a7.34 7.34 0 0 0 1.49-4.41v-.43Z"/><path stroke="#2D383F" stroke-linecap="round" stroke-linejoin="round" d="M6.53 5.29c.93-.43 2.01-.43 2.94 0 .92.42 1.6 1.23 1.82 2.18a3.1 3.1 0 0 1-.65 2.73A3.44 3.44 0 0 1 8 11.4c-1.03 0-2-.45-2.64-1.21a3.1 3.1 0 0 1-.65-2.73c.22-.95.9-1.76 1.82-2.18Z"/></svg>
